<svg width="81" height="80" viewBox="0 0 81 80" fill="none" xmlns="http://www.w3.org/2000/svg">
<path d="M15.766 31.992C13.462 31.992 11.382 33.784 11.382 36.184C11.382 38.808 13.334 40.408 15.766 40.408C18.198 40.408 20.15 38.808 20.15 36.184C20.15 33.784 18.07 31.992 15.766 31.992ZM7.92603 36.312C7.92603 35.192 8.11803 33.944 8.95003 32.28C11.542 27.096 13.206 24.056 15.798 19.544H19.606L15.286 27.32L14.166 29.08C14.71 28.92 15.254 28.856 15.766 28.856C20.214 28.856 23.606 32.12 23.606 36.312C23.606 40.504 20.566 43.544 15.766 43.544C10.966 43.544 7.92603 40.504 7.92603 36.312ZM28.6495 31.672V19.544H41.6735V22.712H31.9775V28.632C32.9695 28.6 33.8975 28.6 34.8575 28.632C39.2415 28.888 42.7295 31.768 42.7295 36.312C42.7295 40.728 39.7215 43.544 34.8255 43.544C31.4655 43.544 28.9695 42.296 27.8495 40.088L30.3775 38.2C31.1455 39.64 32.9695 40.472 34.8255 40.472C37.4175 40.472 39.4335 39.032 39.4335 36.088C39.4335 33.336 37.2895 31.672 34.8255 31.64C31.9455 31.608 31.1775 31.608 28.6495 31.672ZM69.533 19.544L53.277 43H50.269L66.525 19.544H69.533ZM46.621 25.784C46.621 21.624 49.085 19.096 51.869 19.096C54.653 19.096 57.117 21.624 57.117 25.784C57.117 29.944 54.813 32.504 51.869 32.504C48.925 32.504 46.621 29.944 46.621 25.784ZM49.117 25.784C49.117 28.728 50.461 29.944 51.869 29.944C53.277 29.944 54.621 28.728 54.621 25.784C54.621 22.84 53.149 21.624 51.869 21.624C50.589 21.624 49.117 22.84 49.117 25.784ZM62.557 36.696C62.557 32.536 65.021 30.008 67.805 30.008C70.589 30.008 73.053 32.536 73.053 36.696C73.053 40.856 70.749 43.416 67.805 43.416C64.861 43.416 62.557 40.856 62.557 36.696ZM65.053 36.696C65.053 39.672 66.365 40.92 67.805 40.92C69.245 40.92 70.557 39.672 70.557 36.696C70.557 33.72 69.117 32.472 67.805 32.472C66.493 32.472 65.053 33.72 65.053 36.696Z" fill="#E61010"/>
<path d="M7.23203 61.304V56.864H4.77203L4.73603 57.896C4.72003 58.264 4.69603 58.62 4.66403 58.964C4.63203 59.3 4.58003 59.612 4.50803 59.9C4.43603 60.18 4.33203 60.412 4.19603 60.596C4.06003 60.78 3.88003 60.9 3.65603 60.956L2.16803 60.728C2.40803 60.728 2.60003 60.652 2.74403 60.5C2.89603 60.34 3.01203 60.124 3.09203 59.852C3.18003 59.572 3.24403 59.256 3.28403 58.904C3.32403 58.544 3.35203 58.172 3.36803 57.788L3.45203 55.592H8.73203V61.304H7.23203ZM1.94003 63.428V60.728H9.68003V63.428H8.27603V62H3.33203V63.428H1.94003ZM13.8757 62.084C13.2197 62.084 12.6357 61.944 12.1237 61.664C11.6117 61.376 11.2077 60.984 10.9117 60.488C10.6157 59.992 10.4677 59.428 10.4677 58.796C10.4677 58.156 10.6157 57.592 10.9117 57.104C11.2077 56.608 11.6117 56.22 12.1237 55.94C12.6357 55.66 13.2197 55.52 13.8757 55.52C14.5397 55.52 15.1277 55.66 15.6397 55.94C16.1597 56.22 16.5637 56.604 16.8517 57.092C17.1477 57.58 17.2957 58.148 17.2957 58.796C17.2957 59.428 17.1477 59.992 16.8517 60.488C16.5637 60.984 16.1597 61.376 15.6397 61.664C15.1277 61.944 14.5397 62.084 13.8757 62.084ZM13.8757 60.8C14.2437 60.8 14.5717 60.72 14.8597 60.56C15.1477 60.4 15.3717 60.168 15.5317 59.864C15.6997 59.56 15.7837 59.204 15.7837 58.796C15.7837 58.38 15.6997 58.024 15.5317 57.728C15.3717 57.424 15.1477 57.192 14.8597 57.032C14.5717 56.872 14.2477 56.792 13.8877 56.792C13.5197 56.792 13.1917 56.872 12.9037 57.032C12.6237 57.192 12.3997 57.424 12.2317 57.728C12.0637 58.024 11.9797 58.38 11.9797 58.796C11.9797 59.204 12.0637 59.56 12.2317 59.864C12.3997 60.168 12.6237 60.4 12.9037 60.56C13.1917 60.72 13.5157 60.8 13.8757 60.8ZM17.7712 61.988L17.8432 60.728C17.8992 60.736 17.9512 60.744 17.9992 60.752C18.0472 60.76 18.0912 60.764 18.1312 60.764C18.3792 60.764 18.5712 60.688 18.7072 60.536C18.8432 60.384 18.9432 60.18 19.0072 59.924C19.0792 59.66 19.1272 59.368 19.1512 59.048C19.1832 58.72 19.2072 58.392 19.2232 58.064L19.3312 55.592H24.5152V62H23.0152V56.456L23.3632 56.864H20.3152L20.6392 56.444L20.5552 58.136C20.5312 58.704 20.4832 59.232 20.4112 59.72C20.3472 60.2 20.2432 60.62 20.0992 60.98C19.9632 61.34 19.7712 61.62 19.5232 61.82C19.2832 62.02 18.9752 62.12 18.5992 62.12C18.4792 62.12 18.3472 62.108 18.2032 62.084C18.0672 62.06 17.9232 62.028 17.7712 61.988ZM26.5353 62V55.592H28.0353V59.816L31.5753 55.592H32.9433V62H31.4433V57.776L27.9153 62H26.5353ZM41.8295 62.084C41.3095 62.084 40.8335 61.964 40.4015 61.724C39.9775 61.484 39.6375 61.124 39.3815 60.644C39.1335 60.156 39.0095 59.54 39.0095 58.796C39.0095 58.044 39.1295 57.428 39.3695 56.948C39.6175 56.468 39.9535 56.112 40.3775 55.88C40.8015 55.64 41.2855 55.52 41.8295 55.52C42.4615 55.52 43.0175 55.656 43.4975 55.928C43.9855 56.2 44.3695 56.58 44.6495 57.068C44.9375 57.556 45.0815 58.132 45.0815 58.796C45.0815 59.46 44.9375 60.04 44.6495 60.536C44.3695 61.024 43.9855 61.404 43.4975 61.676C43.0175 61.948 42.4615 62.084 41.8295 62.084ZM38.2775 64.328V55.592H39.7055V57.104L39.6575 58.808L39.7775 60.512V64.328H38.2775ZM41.6615 60.8C42.0215 60.8 42.3415 60.72 42.6215 60.56C42.9095 60.4 43.1375 60.168 43.3055 59.864C43.4735 59.56 43.5575 59.204 43.5575 58.796C43.5575 58.38 43.4735 58.024 43.3055 57.728C43.1375 57.424 42.9095 57.192 42.6215 57.032C42.3415 56.872 42.0215 56.792 41.6615 56.792C41.3015 56.792 40.9775 56.872 40.6895 57.032C40.4015 57.192 40.1735 57.424 40.0055 57.728C39.8375 58.024 39.7535 58.38 39.7535 58.796C39.7535 59.204 39.8375 59.56 40.0055 59.864C40.1735 60.168 40.4015 60.4 40.6895 60.56C40.9775 60.72 41.3015 60.8 41.6615 60.8ZM53.0424 62V55.592H54.5424V62H53.0424ZM49.6944 57.704C50.5184 57.704 51.1424 57.888 51.5664 58.256C51.9984 58.624 52.2144 59.144 52.2144 59.816C52.2144 60.512 51.9744 61.056 51.4944 61.448C51.0224 61.832 50.3504 62.02 49.4784 62.012L46.5744 62V55.592H48.0744V57.692L49.6944 57.704ZM49.3464 60.908C49.7864 60.916 50.1224 60.824 50.3544 60.632C50.5864 60.44 50.7024 60.16 50.7024 59.792C50.7024 59.424 50.5864 59.16 50.3544 59C50.1304 58.832 49.7944 58.744 49.3464 58.736L48.0744 58.724V60.896L49.3464 60.908ZM56.5588 62V55.592H58.0588V58.196H61.2868V55.592H62.7868V62H61.2868V59.468H58.0588V62H56.5588ZM69.3931 62L67.0771 58.928L68.3011 58.172L71.1571 62H69.3931ZM64.7971 62V55.592H66.2971V62H64.7971ZM65.8531 59.432V58.184H68.0251V59.432H65.8531ZM68.4451 58.976L67.0411 58.808L69.3931 55.592H71.0011L68.4451 58.976ZM75.9858 62V60.704L75.9018 60.428V58.16C75.9018 57.72 75.7698 57.38 75.5058 57.14C75.2418 56.892 74.8418 56.768 74.3058 56.768C73.9458 56.768 73.5898 56.824 73.2378 56.936C72.8938 57.048 72.6018 57.204 72.3618 57.404L71.7738 56.312C72.1178 56.048 72.5258 55.852 72.9978 55.724C73.4778 55.588 73.9738 55.52 74.4858 55.52C75.4138 55.52 76.1298 55.744 76.6338 56.192C77.1458 56.632 77.4018 57.316 77.4018 58.244V62H75.9858ZM73.9698 62.084C73.4898 62.084 73.0698 62.004 72.7098 61.844C72.3498 61.676 72.0698 61.448 71.8698 61.16C71.6778 60.864 71.5818 60.532 71.5818 60.164C71.5818 59.804 71.6658 59.48 71.8338 59.192C72.0098 58.904 72.2938 58.676 72.6858 58.508C73.0778 58.34 73.5978 58.256 74.2458 58.256H76.1058V59.252H74.3538C73.8418 59.252 73.4978 59.336 73.3218 59.504C73.1458 59.664 73.0578 59.864 73.0578 60.104C73.0578 60.376 73.1658 60.592 73.3818 60.752C73.5978 60.912 73.8978 60.992 74.2818 60.992C74.6498 60.992 74.9778 60.908 75.2658 60.74C75.5618 60.572 75.7738 60.324 75.9018 59.996L76.1538 60.896C76.0098 61.272 75.7498 61.564 75.3738 61.772C75.0058 61.98 74.5378 62.084 73.9698 62.084Z" fill="#E61010"/>
<g opacity="0.3" clip-path="url(#clip0_2010_12218)">
<path fill-rule="evenodd" clip-rule="evenodd" d="M16.7027 73L22.5811 64.909C14.9627 59.4686 9.9961 50.5535 9.9961 40.4783C9.9961 23.9098 23.4276 10.4783 39.9961 10.4783C56.5646 10.4783 69.9961 23.9098 69.9961 40.4783L79.9961 40.4783C79.9961 18.3869 62.0875 0.478323 39.9961 0.478321C17.9047 0.478319 -0.00390148 18.3869 -0.00390341 40.4783C-0.00390458 53.8794 6.5863 65.7413 16.7027 73Z" fill="#00438A"/>
<path fill-rule="evenodd" clip-rule="evenodd" d="M16.7027 73L22.5811 64.909C14.9627 59.4686 9.9961 50.5535 9.9961 40.4783C9.9961 23.9098 23.4276 10.4783 39.9961 10.4783C56.5646 10.4783 69.9961 23.9098 69.9961 40.4783L79.9961 40.4783C79.9961 18.3869 62.0875 0.478323 39.9961 0.478321C17.9047 0.478319 -0.00390148 18.3869 -0.00390341 40.4783C-0.00390458 53.8794 6.5863 65.7413 16.7027 73Z" fill="white" fill-opacity="0.6"/>
</g>
<defs>
<clipPath id="clip0_2010_12218">
<rect width="80" height="80" fill="white" transform="translate(-0.00390625)"/>
</clipPath>
</defs>
</svg>
