<svg width="80" height="80" viewBox="0 0 80 80" fill="none" xmlns="http://www.w3.org/2000/svg">
<path d="M18.762 25.944C18.762 23.608 16.778 22.168 14.314 22.168C12.746 22.168 11.21 22.808 10.282 23.992L8.042 21.656C9.354 20.056 11.434 19 14.282 19C19.114 19 22.25 22.008 22.25 25.816C22.25 28.664 21.418 30.52 19.37 33.016C17.866 34.84 16.106 36.888 14.058 38.936L13.162 39.864L14.634 39.768H22.858V43H8.33V40.088C10.922 37.496 13.354 34.968 15.722 32.216C17.354 30.392 18.762 28.408 18.762 25.944ZM28.3175 31.672V19.544H41.3415V22.712H31.6455V28.632C32.6375 28.6 33.5655 28.6 34.5255 28.632C38.9095 28.888 42.3975 31.768 42.3975 36.312C42.3975 40.728 39.3895 43.544 34.4935 43.544C31.1335 43.544 28.6375 42.296 27.5175 40.088L30.0455 38.2C30.8135 39.64 32.6375 40.472 34.4935 40.472C37.0855 40.472 39.1015 39.032 39.1015 36.088C39.1015 33.336 36.9575 31.672 34.4935 31.64C31.6135 31.608 30.8455 31.608 28.3175 31.672ZM69.201 19.544L52.945 43H49.937L66.193 19.544H69.201ZM46.289 25.784C46.289 21.624 48.753 19.096 51.537 19.096C54.321 19.096 56.785 21.624 56.785 25.784C56.785 29.944 54.481 32.504 51.537 32.504C48.593 32.504 46.289 29.944 46.289 25.784ZM48.785 25.784C48.785 28.728 50.129 29.944 51.537 29.944C52.945 29.944 54.289 28.728 54.289 25.784C54.289 22.84 52.817 21.624 51.537 21.624C50.257 21.624 48.785 22.84 48.785 25.784ZM62.225 36.696C62.225 32.536 64.689 30.008 67.473 30.008C70.257 30.008 72.721 32.536 72.721 36.696C72.721 40.856 70.417 43.416 67.473 43.416C64.529 43.416 62.225 40.856 62.225 36.696ZM64.721 36.696C64.721 39.672 66.033 40.92 67.473 40.92C68.913 40.92 70.225 39.672 70.225 36.696C70.225 33.72 68.785 32.472 67.473 32.472C66.161 32.472 64.721 33.72 64.721 36.696Z" fill="#E61010"/>
<path d="M6.9 61.304V56.864H4.44L4.404 57.896C4.388 58.264 4.364 58.62 4.332 58.964C4.3 59.3 4.248 59.612 4.176 59.9C4.104 60.18 4 60.412 3.864 60.596C3.728 60.78 3.548 60.9 3.324 60.956L1.836 60.728C2.076 60.728 2.268 60.652 2.412 60.5C2.564 60.34 2.68 60.124 2.76 59.852C2.848 59.572 2.912 59.256 2.952 58.904C2.992 58.544 3.02 58.172 3.036 57.788L3.12 55.592H8.4V61.304H6.9ZM1.608 63.428V60.728H9.348V63.428H7.944V62H3V63.428H1.608ZM13.5437 62.084C12.8877 62.084 12.3037 61.944 11.7917 61.664C11.2797 61.376 10.8757 60.984 10.5797 60.488C10.2837 59.992 10.1357 59.428 10.1357 58.796C10.1357 58.156 10.2837 57.592 10.5797 57.104C10.8757 56.608 11.2797 56.22 11.7917 55.94C12.3037 55.66 12.8877 55.52 13.5437 55.52C14.2077 55.52 14.7957 55.66 15.3077 55.94C15.8277 56.22 16.2317 56.604 16.5197 57.092C16.8157 57.58 16.9637 58.148 16.9637 58.796C16.9637 59.428 16.8157 59.992 16.5197 60.488C16.2317 60.984 15.8277 61.376 15.3077 61.664C14.7957 61.944 14.2077 62.084 13.5437 62.084ZM13.5437 60.8C13.9117 60.8 14.2397 60.72 14.5277 60.56C14.8157 60.4 15.0397 60.168 15.1997 59.864C15.3677 59.56 15.4517 59.204 15.4517 58.796C15.4517 58.38 15.3677 58.024 15.1997 57.728C15.0397 57.424 14.8157 57.192 14.5277 57.032C14.2397 56.872 13.9157 56.792 13.5557 56.792C13.1877 56.792 12.8597 56.872 12.5717 57.032C12.2917 57.192 12.0677 57.424 11.8997 57.728C11.7317 58.024 11.6477 58.38 11.6477 58.796C11.6477 59.204 11.7317 59.56 11.8997 59.864C12.0677 60.168 12.2917 60.4 12.5717 60.56C12.8597 60.72 13.1837 60.8 13.5437 60.8ZM17.4392 61.988L17.5112 60.728C17.5672 60.736 17.6192 60.744 17.6672 60.752C17.7152 60.76 17.7592 60.764 17.7992 60.764C18.0472 60.764 18.2392 60.688 18.3752 60.536C18.5112 60.384 18.6112 60.18 18.6752 59.924C18.7472 59.66 18.7952 59.368 18.8192 59.048C18.8512 58.72 18.8752 58.392 18.8912 58.064L18.9992 55.592H24.1832V62H22.6832V56.456L23.0312 56.864H19.9832L20.3072 56.444L20.2232 58.136C20.1992 58.704 20.1512 59.232 20.0792 59.72C20.0152 60.2 19.9112 60.62 19.7672 60.98C19.6312 61.34 19.4392 61.62 19.1912 61.82C18.9512 62.02 18.6432 62.12 18.2672 62.12C18.1472 62.12 18.0152 62.108 17.8712 62.084C17.7352 62.06 17.5912 62.028 17.4392 61.988ZM26.2033 62V55.592H27.7033V59.816L31.2433 55.592H32.6113V62H31.1113V57.776L27.5833 62H26.2033ZM41.4975 62.084C40.9775 62.084 40.5015 61.964 40.0695 61.724C39.6455 61.484 39.3055 61.124 39.0495 60.644C38.8015 60.156 38.6775 59.54 38.6775 58.796C38.6775 58.044 38.7975 57.428 39.0375 56.948C39.2855 56.468 39.6215 56.112 40.0455 55.88C40.4695 55.64 40.9535 55.52 41.4975 55.52C42.1295 55.52 42.6855 55.656 43.1655 55.928C43.6535 56.2 44.0375 56.58 44.3175 57.068C44.6055 57.556 44.7495 58.132 44.7495 58.796C44.7495 59.46 44.6055 60.04 44.3175 60.536C44.0375 61.024 43.6535 61.404 43.1655 61.676C42.6855 61.948 42.1295 62.084 41.4975 62.084ZM37.9455 64.328V55.592H39.3735V57.104L39.3255 58.808L39.4455 60.512V64.328H37.9455ZM41.3295 60.8C41.6895 60.8 42.0095 60.72 42.2895 60.56C42.5775 60.4 42.8055 60.168 42.9735 59.864C43.1415 59.56 43.2255 59.204 43.2255 58.796C43.2255 58.38 43.1415 58.024 42.9735 57.728C42.8055 57.424 42.5775 57.192 42.2895 57.032C42.0095 56.872 41.6895 56.792 41.3295 56.792C40.9695 56.792 40.6455 56.872 40.3575 57.032C40.0695 57.192 39.8415 57.424 39.6735 57.728C39.5055 58.024 39.4215 58.38 39.4215 58.796C39.4215 59.204 39.5055 59.56 39.6735 59.864C39.8415 60.168 40.0695 60.4 40.3575 60.56C40.6455 60.72 40.9695 60.8 41.3295 60.8ZM52.7104 62V55.592H54.2104V62H52.7104ZM49.3624 57.704C50.1864 57.704 50.8104 57.888 51.2344 58.256C51.6664 58.624 51.8824 59.144 51.8824 59.816C51.8824 60.512 51.6424 61.056 51.1624 61.448C50.6904 61.832 50.0184 62.02 49.1464 62.012L46.2424 62V55.592H47.7424V57.692L49.3624 57.704ZM49.0144 60.908C49.4544 60.916 49.7904 60.824 50.0224 60.632C50.2544 60.44 50.3704 60.16 50.3704 59.792C50.3704 59.424 50.2544 59.16 50.0224 59C49.7984 58.832 49.4624 58.744 49.0144 58.736L47.7424 58.724V60.896L49.0144 60.908ZM56.2268 62V55.592H57.7268V58.196H60.9548V55.592H62.4548V62H60.9548V59.468H57.7268V62H56.2268ZM69.061 62L66.745 58.928L67.969 58.172L70.825 62H69.061ZM64.465 62V55.592H65.965V62H64.465ZM65.521 59.432V58.184H67.693V59.432H65.521ZM68.113 58.976L66.709 58.808L69.061 55.592H70.669L68.113 58.976ZM75.6538 62V60.704L75.5698 60.428V58.16C75.5698 57.72 75.4378 57.38 75.1738 57.14C74.9098 56.892 74.5098 56.768 73.9738 56.768C73.6138 56.768 73.2578 56.824 72.9058 56.936C72.5618 57.048 72.2698 57.204 72.0298 57.404L71.4418 56.312C71.7858 56.048 72.1938 55.852 72.6658 55.724C73.1458 55.588 73.6418 55.52 74.1538 55.52C75.0818 55.52 75.7978 55.744 76.3018 56.192C76.8138 56.632 77.0698 57.316 77.0698 58.244V62H75.6538ZM73.6378 62.084C73.1578 62.084 72.7378 62.004 72.3778 61.844C72.0178 61.676 71.7378 61.448 71.5378 61.16C71.3458 60.864 71.2498 60.532 71.2498 60.164C71.2498 59.804 71.3338 59.48 71.5018 59.192C71.6778 58.904 71.9618 58.676 72.3538 58.508C72.7458 58.34 73.2658 58.256 73.9138 58.256H75.7738V59.252H74.0218C73.5098 59.252 73.1658 59.336 72.9898 59.504C72.8138 59.664 72.7258 59.864 72.7258 60.104C72.7258 60.376 72.8338 60.592 73.0498 60.752C73.2658 60.912 73.5658 60.992 73.9498 60.992C74.3178 60.992 74.6458 60.908 74.9338 60.74C75.2298 60.572 75.4418 60.324 75.5698 59.996L75.8218 60.896C75.6778 61.272 75.4178 61.564 75.0418 61.772C74.6738 61.98 74.2058 62.084 73.6378 62.084Z" fill="#E61010"/>
<g opacity="0.3">
<path d="M80 40.271C80 18.1796 62.0914 0.271011 40 0.271011V10.271C56.5685 10.271 70 23.7025 70 40.271H80Z" fill="#00438A"/>
<path d="M80 40.271C80 18.1796 62.0914 0.271011 40 0.271011V10.271C56.5685 10.271 70 23.7025 70 40.271H80Z" fill="white" fill-opacity="0.6"/>
</g>
</svg>
