<svg width="81" height="80" viewBox="0 0 81 80" fill="none" xmlns="http://www.w3.org/2000/svg">
<path d="M9.47406 31.672V19.544H22.4981V22.712H12.8021V28.632C13.7941 28.6 14.7221 28.6 15.6821 28.632C20.0661 28.888 23.5541 31.768 23.5541 36.312C23.5541 40.728 20.5461 43.544 15.6501 43.544C12.2901 43.544 9.79406 42.296 8.67406 40.088L11.2021 38.2C11.9701 39.64 13.7941 40.472 15.6501 40.472C18.2421 40.472 20.2581 39.032 20.2581 36.088C20.2581 33.336 18.1141 31.672 15.6501 31.64C12.7701 31.608 12.0021 31.608 9.47406 31.672ZM35.6056 31.992C33.3016 31.992 31.2216 33.784 31.2216 36.184C31.2216 38.808 33.1736 40.408 35.6056 40.408C38.0376 40.408 39.9896 38.808 39.9896 36.184C39.9896 33.784 37.9096 31.992 35.6056 31.992ZM27.7656 36.312C27.7656 35.192 27.9576 33.944 28.7896 32.28C31.3816 27.096 33.0456 24.056 35.6376 19.544H39.4456L35.1256 27.32L34.0056 29.08C34.5496 28.92 35.0936 28.856 35.6056 28.856C40.0536 28.856 43.4456 32.12 43.4456 36.312C43.4456 40.504 40.4056 43.544 35.6056 43.544C30.8056 43.544 27.7656 40.504 27.7656 36.312ZM69.8651 19.544L53.6091 43H50.6011L66.8571 19.544H69.8651ZM46.9531 25.784C46.9531 21.624 49.4171 19.096 52.2011 19.096C54.9851 19.096 57.4491 21.624 57.4491 25.784C57.4491 29.944 55.1451 32.504 52.2011 32.504C49.2571 32.504 46.9531 29.944 46.9531 25.784ZM49.4491 25.784C49.4491 28.728 50.7931 29.944 52.2011 29.944C53.6091 29.944 54.9531 28.728 54.9531 25.784C54.9531 22.84 53.4811 21.624 52.2011 21.624C50.9211 21.624 49.4491 22.84 49.4491 25.784ZM62.8891 36.696C62.8891 32.536 65.3531 30.008 68.1371 30.008C70.9211 30.008 73.3851 32.536 73.3851 36.696C73.3851 40.856 71.0811 43.416 68.1371 43.416C65.1931 43.416 62.8891 40.856 62.8891 36.696ZM65.3851 36.696C65.3851 39.672 66.6971 40.92 68.1371 40.92C69.5771 40.92 70.8891 39.672 70.8891 36.696C70.8891 33.72 69.4491 32.472 68.1371 32.472C66.8251 32.472 65.3851 33.72 65.3851 36.696Z" fill="#E61010"/>
<path d="M7.56406 61.304V56.864H5.10406L5.06806 57.896C5.05206 58.264 5.02806 58.62 4.99606 58.964C4.96406 59.3 4.91206 59.612 4.84006 59.9C4.76806 60.18 4.66406 60.412 4.52806 60.596C4.39206 60.78 4.21206 60.9 3.98806 60.956L2.50006 60.728C2.74006 60.728 2.93206 60.652 3.07606 60.5C3.22806 60.34 3.34406 60.124 3.42406 59.852C3.51206 59.572 3.57606 59.256 3.61606 58.904C3.65606 58.544 3.68406 58.172 3.70006 57.788L3.78406 55.592H9.06406V61.304H7.56406ZM2.27206 63.428V60.728H10.0121V63.428H8.60806V62H3.66406V63.428H2.27206ZM14.2078 62.084C13.5518 62.084 12.9678 61.944 12.4558 61.664C11.9438 61.376 11.5398 60.984 11.2438 60.488C10.9478 59.992 10.7998 59.428 10.7998 58.796C10.7998 58.156 10.9478 57.592 11.2438 57.104C11.5398 56.608 11.9438 56.22 12.4558 55.94C12.9678 55.66 13.5518 55.52 14.2078 55.52C14.8718 55.52 15.4598 55.66 15.9718 55.94C16.4918 56.22 16.8958 56.604 17.1838 57.092C17.4798 57.58 17.6278 58.148 17.6278 58.796C17.6278 59.428 17.4798 59.992 17.1838 60.488C16.8958 60.984 16.4918 61.376 15.9718 61.664C15.4598 61.944 14.8718 62.084 14.2078 62.084ZM14.2078 60.8C14.5758 60.8 14.9038 60.72 15.1918 60.56C15.4798 60.4 15.7038 60.168 15.8638 59.864C16.0318 59.56 16.1158 59.204 16.1158 58.796C16.1158 58.38 16.0318 58.024 15.8638 57.728C15.7038 57.424 15.4798 57.192 15.1918 57.032C14.9038 56.872 14.5798 56.792 14.2198 56.792C13.8518 56.792 13.5238 56.872 13.2358 57.032C12.9558 57.192 12.7318 57.424 12.5638 57.728C12.3958 58.024 12.3118 58.38 12.3118 58.796C12.3118 59.204 12.3958 59.56 12.5638 59.864C12.7318 60.168 12.9558 60.4 13.2358 60.56C13.5238 60.72 13.8478 60.8 14.2078 60.8ZM18.1033 61.988L18.1753 60.728C18.2313 60.736 18.2833 60.744 18.3313 60.752C18.3793 60.76 18.4233 60.764 18.4633 60.764C18.7113 60.764 18.9033 60.688 19.0393 60.536C19.1753 60.384 19.2753 60.18 19.3393 59.924C19.4113 59.66 19.4593 59.368 19.4833 59.048C19.5153 58.72 19.5393 58.392 19.5553 58.064L19.6633 55.592H24.8473V62H23.3473V56.456L23.6953 56.864H20.6473L20.9713 56.444L20.8873 58.136C20.8633 58.704 20.8153 59.232 20.7433 59.72C20.6793 60.2 20.5753 60.62 20.4313 60.98C20.2953 61.34 20.1033 61.62 19.8553 61.82C19.6153 62.02 19.3073 62.12 18.9313 62.12C18.8113 62.12 18.6793 62.108 18.5353 62.084C18.3993 62.06 18.2553 62.028 18.1033 61.988ZM26.8674 62V55.592H28.3674V59.816L31.9074 55.592H33.2754V62H31.7754V57.776L28.2474 62H26.8674ZM42.1616 62.084C41.6416 62.084 41.1656 61.964 40.7336 61.724C40.3096 61.484 39.9696 61.124 39.7136 60.644C39.4656 60.156 39.3416 59.54 39.3416 58.796C39.3416 58.044 39.4616 57.428 39.7016 56.948C39.9496 56.468 40.2856 56.112 40.7096 55.88C41.1336 55.64 41.6176 55.52 42.1616 55.52C42.7936 55.52 43.3496 55.656 43.8296 55.928C44.3176 56.2 44.7016 56.58 44.9816 57.068C45.2696 57.556 45.4136 58.132 45.4136 58.796C45.4136 59.46 45.2696 60.04 44.9816 60.536C44.7016 61.024 44.3176 61.404 43.8296 61.676C43.3496 61.948 42.7936 62.084 42.1616 62.084ZM38.6096 64.328V55.592H40.0376V57.104L39.9896 58.808L40.1096 60.512V64.328H38.6096ZM41.9936 60.8C42.3536 60.8 42.6736 60.72 42.9536 60.56C43.2416 60.4 43.4696 60.168 43.6376 59.864C43.8056 59.56 43.8896 59.204 43.8896 58.796C43.8896 58.38 43.8056 58.024 43.6376 57.728C43.4696 57.424 43.2416 57.192 42.9536 57.032C42.6736 56.872 42.3536 56.792 41.9936 56.792C41.6336 56.792 41.3096 56.872 41.0216 57.032C40.7336 57.192 40.5056 57.424 40.3376 57.728C40.1696 58.024 40.0856 58.38 40.0856 58.796C40.0856 59.204 40.1696 59.56 40.3376 59.864C40.5056 60.168 40.7336 60.4 41.0216 60.56C41.3096 60.72 41.6336 60.8 41.9936 60.8ZM53.3744 62V55.592H54.8744V62H53.3744ZM50.0264 57.704C50.8504 57.704 51.4744 57.888 51.8984 58.256C52.3304 58.624 52.5464 59.144 52.5464 59.816C52.5464 60.512 52.3064 61.056 51.8264 61.448C51.3544 61.832 50.6824 62.02 49.8104 62.012L46.9064 62V55.592H48.4064V57.692L50.0264 57.704ZM49.6784 60.908C50.1184 60.916 50.4544 60.824 50.6864 60.632C50.9184 60.44 51.0344 60.16 51.0344 59.792C51.0344 59.424 50.9184 59.16 50.6864 59C50.4624 58.832 50.1264 58.744 49.6784 58.736L48.4064 58.724V60.896L49.6784 60.908ZM56.8908 62V55.592H58.3908V58.196H61.6188V55.592H63.1188V62H61.6188V59.468H58.3908V62H56.8908ZM69.7251 62L67.4091 58.928L68.6331 58.172L71.4891 62H69.7251ZM65.1291 62V55.592H66.6291V62H65.1291ZM66.1851 59.432V58.184H68.3571V59.432H66.1851ZM68.7771 58.976L67.3731 58.808L69.7251 55.592H71.3331L68.7771 58.976ZM76.3179 62V60.704L76.2339 60.428V58.16C76.2339 57.72 76.1019 57.38 75.8379 57.14C75.5739 56.892 75.1739 56.768 74.6379 56.768C74.2779 56.768 73.9219 56.824 73.5699 56.936C73.2259 57.048 72.9339 57.204 72.6939 57.404L72.1059 56.312C72.4499 56.048 72.8579 55.852 73.3299 55.724C73.8099 55.588 74.3059 55.52 74.8179 55.52C75.7459 55.52 76.4619 55.744 76.9659 56.192C77.4779 56.632 77.7339 57.316 77.7339 58.244V62H76.3179ZM74.3019 62.084C73.8219 62.084 73.4019 62.004 73.0419 61.844C72.6819 61.676 72.4019 61.448 72.2019 61.16C72.0099 60.864 71.9139 60.532 71.9139 60.164C71.9139 59.804 71.9979 59.48 72.1659 59.192C72.3419 58.904 72.6259 58.676 73.0179 58.508C73.4099 58.34 73.9299 58.256 74.5779 58.256H76.4379V59.252H74.6859C74.1739 59.252 73.8299 59.336 73.6539 59.504C73.4779 59.664 73.3899 59.864 73.3899 60.104C73.3899 60.376 73.4979 60.592 73.7139 60.752C73.9299 60.912 74.2299 60.992 74.6139 60.992C74.9819 60.992 75.3099 60.908 75.5979 60.74C75.8939 60.572 76.1059 60.324 76.2339 59.996L76.4859 60.896C76.3419 61.272 76.0819 61.564 75.7059 61.772C75.3379 61.98 74.8699 62.084 74.3019 62.084Z" fill="#E61010"/>
<g opacity="0.3" clip-path="url(#clip0_2010_12232)">
<path fill-rule="evenodd" clip-rule="evenodd" d="M3.7912 55L13.0914 51.3178C11.7367 47.899 10.9922 44.172 10.9922 40.2711C10.9922 23.7025 24.4236 10.2711 40.9922 10.2711C57.5607 10.2711 70.9922 23.7025 70.9922 40.2711H80.9922C80.9922 18.1797 63.0836 0.271095 40.9922 0.271095C18.9008 0.271095 0.992188 18.1797 0.992188 40.2711C0.992188 45.4723 1.9849 50.4416 3.7912 55Z" fill="#00438A"/>
<path fill-rule="evenodd" clip-rule="evenodd" d="M3.7912 55L13.0914 51.3178C11.7367 47.899 10.9922 44.172 10.9922 40.2711C10.9922 23.7025 24.4236 10.2711 40.9922 10.2711C57.5607 10.2711 70.9922 23.7025 70.9922 40.2711H80.9922C80.9922 18.1797 63.0836 0.271095 40.9922 0.271095C18.9008 0.271095 0.992188 18.1797 0.992188 40.2711C0.992188 45.4723 1.9849 50.4416 3.7912 55Z" fill="white" fill-opacity="0.6"/>
</g>
<defs>
<clipPath id="clip0_2010_12232">
<rect width="80" height="80" fill="white" transform="translate(0.992188)"/>
</clipPath>
</defs>
</svg>
