<svg width="16" height="16" viewBox="0 0 16 16" fill="none" xmlns="http://www.w3.org/2000/svg">
<path fill-rule="evenodd" clip-rule="evenodd" d="M8.51595 5.88327C8.4787 5.84611 8.44915 5.80197 8.42898 5.75337C8.40882 5.70478 8.39844 5.65268 8.39844 5.60007C8.39844 5.54745 8.40882 5.49535 8.42898 5.44676C8.44915 5.39816 8.4787 5.35402 8.51595 5.31687L10.916 2.91687C10.9531 2.87968 10.9973 2.85017 11.0459 2.83005C11.0945 2.80992 11.1466 2.79956 11.1992 2.79956C11.2517 2.79956 11.3038 2.80992 11.3524 2.83005C11.401 2.85017 11.4452 2.87968 11.4824 2.91687C11.5195 2.95406 11.549 2.99821 11.5692 3.0468C11.5893 3.09539 11.5997 3.14747 11.5997 3.20007C11.5997 3.25266 11.5893 3.30474 11.5692 3.35333C11.549 3.40192 11.5195 3.44608 11.4824 3.48327L9.08235 5.88327C9.0452 5.92052 9.00105 5.95007 8.95246 5.97024C8.90386 5.9904 8.85177 6.00078 8.79915 6.00078C8.74654 6.00078 8.69444 5.9904 8.64585 5.97024C8.59725 5.95007 8.55311 5.92052 8.51595 5.88327Z" fill="#00438A"/>
<path fill-rule="evenodd" clip-rule="evenodd" d="M13.8845 5.88327C13.8473 5.92052 13.8032 5.95007 13.7546 5.97024C13.706 5.9904 13.6539 6.00078 13.6013 6.00078C13.5487 6.00078 13.4966 5.9904 13.448 5.97024C13.3994 5.95007 13.3552 5.92052 13.3181 5.88327L10.9181 3.48327C10.843 3.40816 10.8008 3.30629 10.8008 3.20007C10.8008 3.09385 10.843 2.99198 10.9181 2.91687C10.9932 2.84176 11.0951 2.79956 11.2013 2.79956C11.3075 2.79956 11.4094 2.84176 11.4845 2.91687L13.8845 5.31687C13.9217 5.35402 13.9513 5.39816 13.9715 5.44676C13.9916 5.49535 14.002 5.54745 14.002 5.60007C14.002 5.65268 13.9916 5.70478 13.9715 5.75337C13.9513 5.80197 13.9217 5.84611 13.8845 5.88327Z" fill="#00438A"/>
<path fill-rule="evenodd" clip-rule="evenodd" d="M11.1989 3.19995C11.305 3.19995 11.4068 3.24209 11.4818 3.31711C11.5568 3.39212 11.5989 3.49386 11.5989 3.59995V11.2C11.5989 11.306 11.5568 11.4078 11.4818 11.4828C11.4068 11.5578 11.305 11.6 11.1989 11.6C11.0929 11.6 10.9911 11.5578 10.9161 11.4828C10.8411 11.4078 10.7989 11.306 10.7989 11.2V3.59995C10.7989 3.49386 10.8411 3.39212 10.9161 3.31711C10.9911 3.24209 11.0929 3.19995 11.1989 3.19995ZM7.48214 10.1168C7.51939 10.1539 7.54895 10.198 7.56911 10.2466C7.58928 10.2952 7.59966 10.3473 7.59966 10.4C7.59966 10.4526 7.58928 10.5047 7.56911 10.5533C7.54895 10.6019 7.51939 10.646 7.48214 10.6832L5.08214 13.0832C5.00703 13.1583 4.90516 13.2005 4.79894 13.2005C4.69272 13.2005 4.59085 13.1583 4.51574 13.0832C4.44063 13.008 4.39844 12.9062 4.39844 12.8C4.39844 12.6937 4.44063 12.5919 4.51574 12.5168L6.91574 10.1168C6.9529 10.0795 6.99704 10.0499 7.04564 10.0298C7.09423 10.0096 7.14633 9.99924 7.19894 9.99924C7.25156 9.99924 7.30365 10.0096 7.35225 10.0298C7.40085 10.0499 7.44499 10.0795 7.48214 10.1168Z" fill="#00438A"/>
<path fill-rule="evenodd" clip-rule="evenodd" d="M2.11751 10.1168C2.15467 10.0795 2.19881 10.05 2.24741 10.0298C2.296 10.0096 2.3481 9.99927 2.40072 9.99927C2.45333 9.99927 2.50543 10.0096 2.55402 10.0298C2.60262 10.05 2.64676 10.0795 2.68392 10.1168L5.08392 12.5168C5.12111 12.554 5.15061 12.5981 5.17073 12.6467C5.19086 12.6953 5.20122 12.7474 5.20122 12.8C5.20122 12.8526 5.19086 12.9047 5.17073 12.9532C5.15061 13.0018 5.12111 13.046 5.08392 13.0832C5.04672 13.1204 5.00257 13.1499 4.95398 13.17C4.90539 13.1901 4.85331 13.2005 4.80072 13.2005C4.74812 13.2005 4.69604 13.1901 4.64745 13.17C4.59886 13.1499 4.55471 13.1204 4.51752 13.0832L2.11751 10.6832C2.08026 10.646 2.05071 10.6019 2.03055 10.5533C2.01038 10.5047 2 10.4526 2 10.4C2 10.3474 2.01038 10.2953 2.03055 10.2467C2.05071 10.1981 2.08026 10.1539 2.11751 10.1168Z" fill="#00438A"/>
<path fill-rule="evenodd" clip-rule="evenodd" d="M4.80234 12.8001C4.69626 12.8001 4.59452 12.758 4.5195 12.683C4.44449 12.608 4.40234 12.5062 4.40234 12.4001V4.80015C4.40234 4.69406 4.44449 4.59232 4.5195 4.5173C4.59452 4.44229 4.69626 4.40015 4.80234 4.40015C4.90843 4.40015 5.01017 4.44229 5.08519 4.5173C5.1602 4.59232 5.20234 4.69406 5.20234 4.80015V12.4001C5.20234 12.5062 5.1602 12.608 5.08519 12.683C5.01017 12.758 4.90843 12.8001 4.80234 12.8001Z" fill="#00438A"/>
</svg>
